Coordinates
version=1
nRows=30
nColumns=38
inDegrees=no

Units are S.I. units (second, meters, Newtons, ...)
If the header above contains a line with 'inDegrees', this indicates whether rotational values are in degrees (yes) or radians (no).

endheader
time	pelvis_tilt	pelvis_list	pelvis_rotation	pelvis_tx	pelvis_ty	pelvis_tz	hip_flexion_r	hip_adduction_r	hip_rotation_r	knee_angle_r	ankle_angle_r	subtalar_angle_r	mtp_angle_r	hip_flexion_l	hip_adduction_l	hip_rotation_l	knee_angle_l	ankle_angle_l	subtalar_angle_l	mtp_angle_l	lumbar_extension	lumbar_bending	lumbar_rotation	arm_flex_r	arm_add_r	arm_rot_r	elbow_flex_r	pro_sup_r	wrist_flex_r	wrist_dev_r	arm_flex_l	arm_add_l	arm_rot_l	elbow_flex_l	pro_sup_l	wrist_flex_l	wrist_dev_l
21.37	2.92503	1.35616	-1.22864	0.679827	1.81703	0.946596	-0.0872059	-0.00112826	-0.177769	0.503667	-0.174797	0	0	-0.057168	-0.0685611	0.216875	0.659061	-0.0859451	0	0	-0.641055	0.183118	0.00932876	-0.283109	-0.341235	-0.101036	1.34132	1.5708	0	0	-0.150756	-0.221234	-0.037326	1.13041	1.5708	0	0
21.38	2.93405	1.35705	-1.23679	0.679625	1.81777	0.946745	-0.0881702	-0.00464177	-0.185587	0.503693	-0.17444	0	0	-0.0604422	-0.0683258	0.2057	0.634426	-0.0647079	0	0	-0.637907	0.180623	0.00707859	-0.28123	-0.342015	-0.100892	1.34406	1.5708	0	0	-0.15096	-0.220821	-0.0410949	1.13762	1.5708	0	0
21.39	2.94066	1.36161	-1.23785	0.678832	1.81865	0.94635	-0.0863031	-0.009153	-0.199225	0.503029	-0.173758	0	0	-0.0572842	-0.0645442	0.214306	0.633928	-0.0610123	0	0	-0.629651	0.180353	0.000818183	-0.280183	-0.342276	-0.101474	1.34692	1.5708	0	0	-0.151134	-0.2202	-0.044372	1.14403	1.5708	0	0
21.4	2.93397	1.35585	-1.23917	0.67947	1.81777	0.946973	-0.0892129	-0.00467479	-0.18341	0.503376	-0.174386	0	0	-0.0642973	-0.0685249	0.205603	0.631004	-0.0609807	0	0	-0.638172	0.178726	0.00878211	-0.276493	-0.345978	-0.102413	1.35914	1.5708	0	0	-0.149688	-0.219402	-0.0494302	1.15863	1.5708	0	0
21.41	2.9322	1.35259	-1.24114	0.679709	1.8174	0.94734	-0.0917809	-0.00250231	-0.17523	0.502366	-0.175094	0	0	-0.0687295	-0.0704768	0.200091	0.628785	-0.0614249	0	0	-0.642491	0.177756	0.013006	-0.273496	-0.350029	-0.102694	1.36962	1.5708	0	0	-0.147645	-0.219324	-0.0528107	1.17087	1.5708	0	0
21.42	2.93656	1.35398	-1.24327	0.679377	1.81777	0.947294	-0.0920019	-0.00413497	-0.178915	0.501164	-0.175146	0	0	-0.0684479	-0.0690572	0.20189	0.62795	-0.0619341	0	0	-0.639665	0.177308	0.0108965	-0.270798	-0.352712	-0.10248	1.37572	1.5708	0	0	-0.145768	-0.219559	-0.055616	1.17988	1.5708	0	0
21.43	2.93726	1.3541	-1.24415	0.679214	1.81783	0.94739	-0.0923075	-0.00435424	-0.177954	0.500489	-0.175331	0	0	-0.0691807	-0.068876	0.200543	0.626725	-0.0621636	0	0	-0.638971	0.176753	0.0108206	-0.266449	-0.356029	-0.101899	1.38192	1.5708	0	0	-0.143253	-0.219484	-0.0590338	1.18972	1.5708	0	0
21.44	2.94286	1.3566	-1.24668	0.678792	1.81828	0.947233	-0.0915221	-0.00685536	-0.183749	0.500054	-0.174748	0	0	-0.0674939	-0.0667309	0.202741	0.626096	-0.0620264	0	0	-0.634423	0.176209	0.0070874	-0.26177	-0.357766	-0.101194	1.38425	1.5708	0	0	-0.140423	-0.219779	-0.0620015	1.19735	1.5708	0	0
21.45	2.94638	1.3584	-1.24833	0.67848	1.81855	0.947149	-0.0907106	-0.00859509	-0.187295	0.50004	-0.174089	0	0	-0.0663147	-0.0653611	0.203769	0.62588	-0.0615535	0	0	-0.631001	0.175732	0.00434068	-0.255524	-0.360099	-0.0989935	1.38461	1.5708	0	0	-0.13681	-0.220242	-0.064345	1.20371	1.5708	0	0
21.46	2.94867	1.35928	-1.24946	0.678264	1.8187	0.947161	-0.0906615	-0.00955975	-0.189053	0.499566	-0.173693	0	0	-0.0660217	-0.0647224	0.204059	0.625533	-0.0612242	0	0	-0.629003	0.175493	0.00265339	-0.248781	-0.362997	-0.0958011	1.38481	1.5708	0	0	-0.132584	-0.220633	-0.0654466	1.20817	1.5708	0	0
21.47	2.94949	1.35883	-1.25028	0.678127	1.8186	0.947296	-0.0916358	-0.0095702	-0.188203	0.498567	-0.17356	0	0	-0.0670206	-0.0647979	0.203415	0.624864	-0.0612225	0	0	-0.629213	0.17544	0.002092	-0.241823	-0.365572	-0.0923555	1.38598	1.5704	0	0	-0.128372	-0.220411	-0.0662395	1.21153	1.5708	0	0
21.48	2.94827	1.35661	-1.25045	0.678084	1.81824	0.947584	-0.0939729	-0.00833527	-0.184017	0.497008	-0.17377	0	0	-0.0696216	-0.0657446	0.200773	0.623707	-0.0617613	0	0	-0.632069	0.175707	0.00334074	-0.235199	-0.368392	-0.0890534	1.38961	1.56644	0	0	-0.123848	-0.219746	-0.0663395	1.21456	1.5708	0	0
21.49	2.91439	1.33825	-1.22054	0.677241	1.81643	0.95052	-0.121335	0.00251188	-0.213899	0.454044	-0.209503	0	0	-0.0876809	-0.0787379	0.195833	0.61547	-0.068532	0	0	-0.655636	0.188226	0.0129425	-0.223909	-0.380068	-0.0822522	1.39927	1.55143	0	0	-0.115197	-0.213498	-0.0682914	1.21728	1.5708	0	0
21.5	2.94561	1.34556	-1.25311	0.678329	1.81727	0.948634	-0.10728	-0.00262042	-0.170856	0.486636	-0.188928	0	0	-0.0826635	-0.0713382	0.189251	0.618791	-0.0657698	0	0	-0.646534	0.176478	0.00957441	-0.221748	-0.379817	-0.0771545	1.40305	1.53775	0	0	-0.113953	-0.218946	-0.0657783	1.22262	1.5708	0	0
21.51	2.91458	1.33602	-1.22185	0.677055	1.816	0.950838	-0.120811	0.0064485	-0.183863	0.462723	-0.201712	0	0	-0.0907458	-0.0795504	0.193134	0.61372	-0.0693323	0	0	-0.658749	0.188072	0.0139376	-0.209213	-0.390221	-0.0703099	1.4053	1.52503	0	0	-0.103531	-0.212357	-0.0673921	1.21886	1.5708	0	0
21.52	2.91885	1.33384	-1.22514	0.67694	1.81587	0.951055	-0.124368	0.00701531	-0.18093	0.46088	-0.20459	0	0	-0.0938193	-0.0794794	0.193051	0.612466	-0.0700469	0	0	-0.661441	0.188124	0.0130098	-0.201247	-0.394085	-0.0659137	1.40688	1.51599	0	0	-0.0973084	-0.212091	-0.0680209	1.22036	1.5708	0	0
21.53	2.92283	1.33212	-1.22805	0.676906	1.81575	0.951218	-0.127619	0.00705651	-0.182124	0.458601	-0.205848	0	0	-0.0961914	-0.079429	0.19291	0.611636	-0.0703483	0	0	-0.663516	0.188008	0.0117	-0.19259	-0.397932	-0.0607346	1.40718	1.50632	0	0	-0.091327	-0.211973	-0.0691491	1.2221	1.5708	0	0
21.54	2.92562	1.33059	-1.22998	0.676851	1.81557	0.951338	-0.130213	0.0070961	-0.183207	0.456929	-0.207011	0	0	-0.098116	-0.0794452	0.192659	0.610928	-0.0704418	0	0	-0.665385	0.187992	0.0102061	-0.183	-0.402894	-0.0543668	1.40695	1.49711	0	0	-0.0858318	-0.211891	-0.0707832	1.22462	1.5708	0	0
21.55	2.92783	1.32922	-1.23125	0.676822	1.81537	0.951436	-0.132443	0.00729513	-0.18388	0.455424	-0.207973	0	0	-0.0996122	-0.0796647	0.192237	0.61027	-0.070617	0	0	-0.666877	0.187953	0.0081175	-0.172372	-0.408069	-0.0469025	1.40588	1.48812	0	0	-0.0806516	-0.211722	-0.0733049	1.22749	1.5708	0	0
21.56	2.92922	1.32813	-1.23179	0.676817	1.81511	0.951514	-0.133934	0.0075929	-0.184736	0.454589	-0.20884	0	0	-0.100381	-0.0799663	0.191901	0.609475	-0.0714241	0	0	-0.668049	0.187892	0.00605553	-0.161125	-0.413419	-0.0390733	1.40437	1.47936	0	0	-0.0750684	-0.211459	-0.0760705	1.22945	1.5708	0	0
21.57	2.93033	1.32705	-1.23195	0.676809	1.81481	0.951594	-0.135447	0.00802068	-0.185912	0.453678	-0.20956	0	0	-0.100892	-0.0802326	0.191919	0.608538	-0.0725146	0	0	-0.669266	0.187935	0.00408162	-0.149513	-0.418784	-0.0311548	1.40213	1.47074	0	0	-0.0687657	-0.2111	-0.0783955	1.23024	1.5708	0	0
21.58	2.93133	1.32585	-1.23207	0.6768	1.81445	0.951701	-0.136669	0.00794334	-0.18713	0.452925	-0.210259	0	0	-0.101609	-0.0807002	0.19229	0.608864	-0.0725018	0	0	-0.671024	0.188013	0.0024954	-0.13776	-0.423907	-0.0234834	1.39949	1.46196	0	0	-0.0619196	-0.210699	-0.0802841	1.23073	1.5708	0	0
21.59	2.93254	1.32513	-1.23249	0.676834	1.81408	0.951748	-0.136581	0.00675793	-0.18833	0.451439	-0.212971	0	0	-0.101755	-0.0809546	0.192515	0.609266	-0.0720479	0	0	-0.672475	0.187815	0.00114789	-0.125922	-0.428562	-0.016284	1.39666	1.45304	0	0	-0.0546404	-0.210208	-0.081696	1.23097	1.5708	0	0
21.6	2.9334	1.32523	-1.23303	0.676925	1.81371	0.951679	-0.135076	0.00590908	-0.188926	0.449291	-0.216724	0	0	-0.100892	-0.0809397	0.192032	0.609781	-0.0718092	0	0	-0.673223	0.187121	0.000398533	-0.114049	-0.432851	-0.0101968	1.3938	1.44601	0	0	-0.0468055	-0.209772	-0.0823987	1.23103	1.5708	0	0
21.61	2.93155	1.32406	-1.2307	0.676988	1.81323	0.951846	-0.136493	0.00683931	-0.189437	0.452158	-0.21584	0	0	-0.101058	-0.082037	0.191675	0.609815	-0.0721981	0	0	-0.675456	0.187607	8.69325e-05	-0.100859	-0.437239	-0.00368683	1.39041	1.4391	0	0	-0.0381187	-0.20909	-0.0828889	1.23082	1.5708	0	0
21.62	2.93299	1.323	-1.23106	0.677104	1.81283	0.951912	-0.137589	0.00671661	-0.191163	0.451908	-0.215608	0	0	-0.101335	-0.0824939	0.191654	0.609993	-0.0730785	0	0	-0.676714	0.18833	-0.00234727	-0.0860549	-0.440592	0.00422756	1.38644	1.43207	0	0	-0.0297189	-0.209194	-0.0839056	1.22928	1.5708	0	0
21.63	2.93622	1.32282	-1.23357	0.677339	1.81235	0.951833	-0.136871	0.00617231	-0.191287	0.448577	-0.218681	0	0	-0.100535	-0.0822527	0.191636	0.611117	-0.0737292	0	0	-0.67734	0.18805	-0.00521985	-0.0708007	-0.443032	0.0123586	1.38219	1.42427	0	0	-0.0214578	-0.209817	-0.0852476	1.22839	1.5708	0	0
21.64	2.93655	1.32107	-1.23317	0.67744	1.8119	0.952019	-0.139233	0.00718477	-0.192496	0.449928	-0.218825	0	0	-0.101526	-0.0833064	0.191067	0.611457	-0.0743578	0	0	-0.679436	0.189051	-0.00803942	-0.0544643	-0.445657	0.0217078	1.37686	1.41451	0	0	-0.0130407	-0.209923	-0.0874632	1.22707	1.5708	0	0
21.65	2.93718	1.31949	-1.2332	0.677577	1.81149	0.952178	-0.141117	0.00837336	-0.194255	0.451587	-0.217831	0	0	-0.102588	-0.0840831	0.190999	0.611484	-0.0747387	0	0	-0.681561	0.18976	-0.0106692	-0.038072	-0.448657	0.031559	1.37143	1.40558	0	0	-0.0043718	-0.210084	-0.0895972	1.2255	1.5708	0	0
21.66	2.93777	1.31854	-1.23366	0.677735	1.81107	0.952251	-0.141673	0.00918671	-0.195405	0.452047	-0.21748	0	0	-0.103136	-0.0843331	0.191521	0.611357	-0.0749846	0	0	-0.683098	0.190161	-0.0130843	-0.0213195	-0.451882	0.0416356	1.36564	1.39792	0	0	0.00455811	-0.210037	-0.0916711	1.22338	1.5708	0	0
